<svg width="503" height="396" viewBox="0 0 503 396" fill="none" xmlns="http://www.w3.org/2000/svg">
<path d="M425.84 84H135.339C119.892 84 107.363 96.5094 107.339 111.956L107.038 304.567C107.013 320.048 119.556 332.611 135.038 332.611H492.618C496.347 332.611 499.173 329.245 498.527 325.572L461.296 113.767C458.27 96.5536 443.318 84 425.84 84Z" fill="#FFDB6E" stroke="#FFBC5E" stroke-width="8"/>
<path d="M369.926 4H129.926C123.299 4 117.926 9.37259 117.926 16V56C117.926 62.6274 123.299 68 129.926 68H369.926C376.554 68 381.926 62.6274 381.926 56V16C381.926 9.37258 376.554 4 369.926 4Z" fill="#FFBC5E" stroke="#FFBC5E" stroke-width="8"/>
<path d="M311 84H63C47.536 84 35 96.536 35 112V216C35 231.464 47.536 244 63 244H311C326.464 244 339 231.464 339 216V112C339 96.536 326.464 84 311 84Z" fill="#1E1E1E" stroke="#FFBC5E" stroke-width="8"/>
<path d="M295 4H55C48.3726 4 43 9.37259 43 16V56C43 62.6274 48.3726 68 55 68H295C301.627 68 307 62.6274 307 56V16C307 9.37258 301.627 4 295 4Z" fill="#1E1E1E" stroke="#FFBC5E" stroke-width="8"/>
<path d="M271 36C271 33.7909 272.791 32 275 32H291C293.209 32 295 33.7909 295 36V52C295 54.2092 293.209 56 291 56H275C272.791 56 271 54.2092 271 52V36Z" fill="#FFBC5E"/>
<path d="M55 44C55 41.7909 56.7909 40 59 40H67C69.2091 40 71 41.7909 71 44V52C71 54.2092 69.2091 56 67 56H59C56.7909 56 55 54.2092 55 52V44Z" fill="#FFBC5E"/>
<path d="M78.4674 68H71.9953L74.8897 73.7888L77.7841 79.5777C79.1393 82.288 81.9094 84.0001 84.9396 84.0001H86.4674C90.8857 84.0001 94.4674 80.4183 94.4674 76.0001V72V68H90.4674H78.4674Z" fill="#FFBC5E" stroke="#FFBC5E" stroke-width="8"/>
<path d="M71 68H64.5279L67.4223 73.7888L70.3167 79.5777C71.6718 82.288 74.442 84.0001 77.4721 84.0001H79C83.4183 84.0001 87 80.4183 87 76.0001V72V68H83H71Z" fill="#1E1E1E" stroke="#FFBC5E" stroke-width="8"/>
<path d="M279 67.9999H272.528L275.422 73.7888L278.317 79.5777C279.672 82.288 282.442 84 285.472 84H287C291.418 84 295 80.4183 295 76V71.9999V67.9999H291H279Z" fill="#FFBC5E" stroke="#FFBC5E" stroke-width="8"/>
<path d="M271.533 67.9999H265.061L267.955 73.7888L270.849 79.5777C272.205 82.288 274.975 84 278.005 84H279.533C283.951 84 287.533 80.4183 287.533 76V71.9999V67.9999H283.533H271.533Z" fill="#1E1E1E" stroke="#FFBC5E" stroke-width="8"/>
<path d="M359 67.9999H365.472L362.578 73.7888L359.432 80.0806C358.231 82.4827 355.776 84 353.09 84C349.174 84 346 80.8256 346 76.9098V71.9999V67.9999H350H359Z" fill="#FFBC5E" stroke="#FFBC5E" stroke-width="8"/>
<path d="M79 44C79 41.7909 80.7909 40 83 40H139C141.209 40 143 41.7909 143 44V52C143 54.2092 141.209 56 139 56H83C80.7909 56 79 54.2092 79 52V44Z" fill="#FFBC5E"/>
<path d="M199 100H63C56.3726 100 51 105.373 51 112V216C51 222.627 56.3726 228 63 228H199C205.627 228 211 222.627 211 216V112C211 105.373 205.627 100 199 100Z" fill="#1E1E1E" fill-opacity="0.7" stroke="#FFBC5E" stroke-width="8"/>
<line x1="263.376" y1="216" x2="312.376" y2="216" stroke="#FFBC5E" stroke-width="8" stroke-linecap="round"/>
<line x1="235" y1="180" x2="315" y2="180" stroke="#FFBC5E" stroke-width="8" stroke-linecap="round"/>
<line x1="235" y1="164" x2="315" y2="164" stroke="#FFBC5E" stroke-width="8" stroke-linecap="round"/>
<line x1="235" y1="148" x2="315" y2="148" stroke="#FFBC5E" stroke-width="8" stroke-linecap="round"/>
<line x1="235" y1="132" x2="315" y2="132" stroke="#FFBC5E" stroke-width="8" stroke-linecap="round"/>
<line x1="235" y1="116" x2="315" y2="116" stroke="#FFBC5E" stroke-width="8" stroke-linecap="round"/>
<line x1="358.865" y1="100.457" x2="358.865" y2="124" stroke="#1E1E1E" stroke-width="8" stroke-linecap="round"/>
<line x1="374.865" y1="100.457" x2="374.865" y2="124" stroke="#1E1E1E" stroke-width="8" stroke-linecap="round"/>
<line x1="390.865" y1="100.457" x2="390.865" y2="124" stroke="#1E1E1E" stroke-width="8" stroke-linecap="round"/>
<line x1="406.865" y1="100.457" x2="406.865" y2="124" stroke="#1E1E1E" stroke-width="8" stroke-linecap="round"/>
<line x1="439.056" y1="100.457" x2="439.056" y2="124" stroke="#1E1E1E" stroke-width="8" stroke-linecap="round"/>
<line x1="422.865" y1="100.457" x2="422.865" y2="124" stroke="#1E1E1E" stroke-width="8" stroke-linecap="round"/>
<line x1="338.809" y1="52" x2="338.809" y2="60" stroke="#1E1E1E" stroke-width="8" stroke-linecap="round"/>
<line x1="371" y1="52" x2="371" y2="60" stroke="#1E1E1E" stroke-width="8" stroke-linecap="round"/>
<line x1="354.809" y1="52" x2="354.809" y2="60" stroke="#1E1E1E" stroke-width="8" stroke-linecap="round"/>
<rect x="292.376" y="208" width="24" height="16" rx="5" fill="#FFBC5E"/>
<path d="M106.444 243.382H348.409L351 271.492H114.542L106.444 243.382Z" fill="#FFBC5E"/>
<path d="M111 244.296H107V248.296V281.528C107 281.863 106.833 282.175 106.554 282.36L63.0077 311.392C60.4916 313.069 59 315.903 59 318.897C59 323.862 63.0396 327.968 68.0709 327.929L86.0839 327.787C90.9933 327.748 94.9529 323.757 94.9529 318.848C94.9529 318.534 95.1099 318.24 95.3712 318.066L138.945 289.017C141.449 287.348 142.953 284.537 142.953 281.528V248.296V244.296H138.953H111Z" fill="#1E1E1E" stroke="#FFBC5E" stroke-width="8"/>
<path d="M208.802 276.435C208.912 272.097 212.46 268.637 216.8 268.637H299.424C301.985 268.637 304.391 269.863 305.896 271.935L317.472 287.868C318.465 289.235 319 290.881 319 292.57V324.637C319 329.056 315.418 332.637 311 332.637H215.583C211.086 332.637 207.472 328.931 207.586 324.435L208.802 276.435Z" fill="#FFBC5E" stroke="#FFBC5E" stroke-width="8"/>
<path d="M6.33809 314.474L4.30202 325.553C3.62453 329.239 6.45513 332.637 10.2032 332.637H214.021C216.908 332.637 219.386 330.581 219.918 327.743L222.333 314.865C222.757 312.602 224.136 310.631 226.117 309.457L269.886 283.52C276.886 279.372 273.945 268.637 265.808 268.637H93.6696C84.0641 268.637 74.6324 271.2 66.3472 276.06L10.1586 309.02C8.15291 310.196 6.75839 312.187 6.33809 314.474Z" fill="#1E1E1E" stroke="#FFBC5E" stroke-width="8"/>
<line x1="11.3401" y1="312.637" x2="188.376" y2="312.637" stroke="#FFBC5E" stroke-width="8" stroke-linecap="round"/>
<path d="M302.595 286.98L259.086 315.464C256.566 317.114 255.047 319.923 255.047 322.936C255.047 327.868 259.046 331.866 263.978 331.866L282.07 331.866C287.002 331.866 291 327.868 291 322.936C291 322.622 291.158 322.329 291.421 322.157L334.93 293.673C337.47 292.011 339 289.179 339 286.144V254.711C339 251.398 336.314 248.711 333 248.711H309.047C305.733 248.711 303.047 251.398 303.047 254.711V286.144C303.047 286.481 302.877 286.795 302.595 286.98Z" fill="#1E1E1E" stroke="#FFBC5E" stroke-width="8"/>
<path d="M196.376 100H87C80.3726 100 75 105.373 75 112V216C75 222.627 80.3726 228 87 228H196.376C203.003 228 208.376 222.627 208.376 216V112C208.376 105.373 203.003 100 196.376 100Z" fill="#FFDB6E" stroke="#FFBC5E" stroke-width="8"/>
<path d="M269.02 371.248H391C408.673 371.248 423 356.922 423 339.248V302.723" stroke="#FFBC5E" stroke-width="8" stroke-linecap="round" stroke-linejoin="round"/>
<path d="M323.656 361.388L328.89 383.069C329.896 387.237 326.738 391.249 322.45 391.249H223.719V376.11L307.874 351.249H310.776C316.896 351.249 322.219 355.44 323.656 361.388Z" fill="#FFDB6E" stroke="#FFBC5E" stroke-width="8" stroke-linecap="round" stroke-linejoin="round"/>
<path d="M214.541 379.437V386.28C214.541 389.024 216.765 391.249 219.509 391.249H262.906C265.65 391.249 267.874 389.024 267.874 386.28V379.437C267.874 374.419 270.71 369.831 275.198 367.587L307.874 351.249H257.669C255.612 351.249 253.583 351.727 251.744 352.647L221.865 367.587C217.376 369.831 214.541 374.419 214.541 379.437Z" fill="#1E1E1E" stroke="#FFBC5E" stroke-width="8" stroke-linecap="round" stroke-linejoin="round"/>
<path d="M220.208 374.405H250.858" stroke="#FFBC5E" stroke-width="8" stroke-linecap="round"/>
</svg>
