<svg width="66" height="41" viewBox="0 0 66 41" fill="none" xmlns="http://www.w3.org/2000/svg">
<path d="M55.7833 4.43334C48.5833 0.833343 37.2667 0.833344 33 0.833344C28.7333 0.833344 18.2167 0.833343 11.0167 4.06668C10.3667 3.00001 9.01666 2.53334 7.84999 3.06668C6.44999 3.70001 5.44999 4.78334 5.24999 4.98334C4.36666 5.96668 4.43332 7.41668 5.33333 8.35001C0.949991 13.55 -0.866675 21.5 0.566658 27.25C2.63332 35.4833 8.81666 40.8167 16.3333 40.8167C21.9 40.8167 24.65 38.7333 26.85 37.0667C27.65 36.45 28.35 35.9333 29.1167 35.55C31.7333 34.25 34.2667 34.25 36.8833 35.55C37.65 35.9333 38.35 36.45 39.15 37.0667C41.3667 38.7333 44.1 40.8167 49.6667 40.8167C57.1833 40.8167 63.3667 35.5 65.4333 27.25C67.3167 19.6833 63.6 8.31668 55.8 4.40001L55.7833 4.43334ZM60.5667 26.0667C59.0833 32 54.8 35.8333 49.6667 35.8333C45.7833 35.8333 44.1 34.5667 42.1667 33.1C41.25 32.4 40.3 31.6833 39.1167 31.1C37.0833 30.0833 35.05 29.5833 33 29.5833C30.95 29.5833 28.9167 30.0833 26.8833 31.1C25.7 31.6833 24.75 32.4 23.8333 33.1C21.8833 34.5667 20.2167 35.8333 16.3333 35.8333C11.1833 35.8333 6.91666 32 5.43332 26.0667C4.06666 20.5667 6.88333 11.7 12.4667 8.91668C18.6 5.85001 29.0667 5.85001 33.0167 5.85001C36.9667 5.85001 47.4333 5.85001 53.5667 8.91668C59.1333 11.7 61.9667 20.5833 60.6 26.0667H60.5667Z" fill="#FFBC5E"/>
<path d="M52.4 11.6834C51.5 11.05 49.75 10.3 46.6 9.33335C43.8167 8.48335 38.6333 7.91669 33 7.91669C27.3667 7.91669 22.1833 8.48335 19.4 9.33335C16.25 10.3 14.5167 11.05 13.6 11.6834C12.7 12.3167 12.6167 12.85 12.7833 13.35C12.95 13.85 13.85 13.8167 15.55 13.5834C17.25 13.3667 19.7667 12.9667 23.15 12.7667C26.0833 12.6 31.8167 12.5167 32.9667 12.5167C34.1167 12.5167 39.85 12.6 42.7833 12.7667C46.1833 12.9667 48.6833 13.3667 50.3833 13.5834C52.0833 13.8 52.9833 13.85 53.15 13.35C53.3167 12.85 53.25 12.3167 52.3333 11.6834H52.4Z" fill="#FFDB6E"/>
</svg>
