<svg width="503" height="396" viewBox="0 0 503 396" fill="none" xmlns="http://www.w3.org/2000/svg">
<path d="M425.84 84.3757H135.339C119.892 84.3757 107.363 96.8851 107.339 112.332L107.038 304.943C107.013 320.424 119.556 332.987 135.038 332.987H492.618C496.347 332.987 499.173 329.621 498.527 325.948L461.296 114.143C458.27 96.9294 443.318 84.3757 425.84 84.3757Z" fill="#FFDB6E" stroke="#FFBC5E" stroke-width="8"/>
<path d="M129.926 4.37573C123.299 4.37573 117.926 9.74832 117.926 16.3757V56.3758C117.926 63.0032 123.299 68.3758 129.926 68.3758H369.926C376.554 68.3758 381.926 63.0032 381.926 56.3758V16.3757C381.926 9.74831 376.554 4.37573 369.926 4.37573H129.926Z" fill="#FFBC5E" stroke="#FFBC5E" stroke-width="8"/>
<path d="M311 84.3757H63C47.536 84.3757 35 96.9118 35 112.376V216.376C35 231.84 47.536 244.376 63 244.376H311C326.464 244.376 339 231.84 339 216.376V112.376C339 96.9118 326.464 84.3757 311 84.3757Z" fill="white" stroke="#FFBC5E" stroke-width="8"/>
<path d="M295 4.37573H55C48.3726 4.37573 43 9.74832 43 16.3757V56.3758C43 63.0032 48.3726 68.3758 55 68.3758H295C301.627 68.3758 307 63.0032 307 56.3758V16.3757C307 9.74832 301.627 4.37573 295 4.37573Z" fill="white" stroke="#FFBC5E" stroke-width="8"/>
<path d="M271 36.3757C271 34.1666 272.791 32.3757 275 32.3757H291C293.209 32.3757 295 34.1666 295 36.3757V52.3758C295 54.5849 293.209 56.3758 291 56.3758H275C272.791 56.3758 271 54.5849 271 52.3758V36.3757Z" fill="#FFBC5E"/>
<path d="M55 44.3757C55 42.1666 56.7909 40.3757 59 40.3757H67C69.2091 40.3757 71 42.1666 71 44.3757V52.3758C71 54.5849 69.2091 56.3758 67 56.3758H59C56.7909 56.3758 55 54.5849 55 52.3758V44.3757Z" fill="#FFBC5E"/>
<path d="M78.4674 68.3757H71.9953L74.8897 74.1646L77.7841 79.9535L81.3618 78.1646L77.7841 79.9535C79.1393 82.6638 81.9094 84.3758 84.9396 84.3758H86.4674C90.8857 84.3758 94.4674 80.7941 94.4674 76.3758V72.3757V68.3757H90.4674H78.4674Z" fill="#FFBC5E" stroke="#FFBC5E" stroke-width="8"/>
<path d="M71 68.3757H64.5279L67.4223 74.1646L70.3167 79.9535C71.6718 82.6638 74.442 84.3758 77.4721 84.3758H79C83.4183 84.3758 87 80.7941 87 76.3758V72.3757V68.3757H83H71Z" fill="white" stroke="#FFBC5E" stroke-width="8"/>
<path d="M279 68.3757H272.528L275.422 74.1645L278.317 79.9534L281.895 78.1646L278.317 79.9534C279.672 82.6637 282.442 84.3757 285.472 84.3757H287C291.418 84.3757 295 80.794 295 76.3757V72.3757V68.3757H291H279Z" fill="#FFBC5E" stroke="#FFBC5E" stroke-width="8"/>
<path d="M271.533 68.3757H265.061L267.955 74.1645L270.849 79.9534C272.205 82.6637 274.975 84.3757 278.005 84.3757H279.533C283.951 84.3757 287.533 80.794 287.533 76.3757V72.3757V68.3757H283.533H271.533Z" fill="white" stroke="#FFBC5E" stroke-width="8"/>
<path d="M359 68.3757H365.472L362.578 74.1645L359.432 80.4564C358.231 82.8584 355.776 84.3757 353.09 84.3757C349.174 84.3757 346 81.2014 346 77.2856V72.3757V68.3757H350H359Z" fill="#FFBC5E" stroke="#FFBC5E" stroke-width="8"/>
<path d="M79 44.3757C79 42.1666 80.7909 40.3757 83 40.3757H139C141.209 40.3757 143 42.1666 143 44.3757V52.3758C143 54.5849 141.209 56.3758 139 56.3758H83C80.7909 56.3758 79 54.5849 79 52.3758V44.3757Z" fill="#FFBC5E"/>
<path d="M199 100.376H63C56.3726 100.376 51 105.748 51 112.376V216.376C51 223.003 56.3726 228.376 63 228.376H199C205.627 228.376 211 223.003 211 216.376V112.376C211 105.748 205.627 100.376 199 100.376Z" fill="white" fill-opacity="0.7" stroke="#FFBC5E" stroke-width="8"/>
<line x1="263.376" y1="216.376" x2="312.376" y2="216.376" stroke="#FFBC5E" stroke-width="8" stroke-linecap="round"/>
<line x1="235" y1="180.376" x2="315" y2="180.376" stroke="#FFBC5E" stroke-width="8" stroke-linecap="round"/>
<line x1="235" y1="164.376" x2="315" y2="164.376" stroke="#FFBC5E" stroke-width="8" stroke-linecap="round"/>
<line x1="235" y1="148.376" x2="315" y2="148.376" stroke="#FFBC5E" stroke-width="8" stroke-linecap="round"/>
<line x1="235" y1="132.376" x2="315" y2="132.376" stroke="#FFBC5E" stroke-width="8" stroke-linecap="round"/>
<line x1="235" y1="116.376" x2="315" y2="116.376" stroke="#FFBC5E" stroke-width="8" stroke-linecap="round"/>
<line x1="358.865" y1="100.832" x2="358.865" y2="124.376" stroke="white" stroke-width="8" stroke-linecap="round"/>
<line x1="374.865" y1="100.832" x2="374.865" y2="124.376" stroke="white" stroke-width="8" stroke-linecap="round"/>
<line x1="390.865" y1="100.832" x2="390.865" y2="124.376" stroke="white" stroke-width="8" stroke-linecap="round"/>
<line x1="406.865" y1="100.832" x2="406.865" y2="124.376" stroke="white" stroke-width="8" stroke-linecap="round"/>
<line x1="439.056" y1="100.832" x2="439.056" y2="124.376" stroke="white" stroke-width="8" stroke-linecap="round"/>
<line x1="422.865" y1="100.832" x2="422.865" y2="124.376" stroke="white" stroke-width="8" stroke-linecap="round"/>
<line x1="338.809" y1="52.3757" x2="338.809" y2="60.3757" stroke="white" stroke-width="8" stroke-linecap="round"/>
<line x1="371" y1="52.3757" x2="371" y2="60.3757" stroke="white" stroke-width="8" stroke-linecap="round"/>
<line x1="354.809" y1="52.3757" x2="354.809" y2="60.3757" stroke="white" stroke-width="8" stroke-linecap="round"/>
<rect x="292.376" y="208.376" width="24" height="16" rx="5" fill="#FFBC5E"/>
<path d="M106.444 243.758H348.409L351 271.868H114.542L106.444 243.758Z" fill="#FFBC5E"/>
<path d="M111 244.671H107V248.671V281.904C107 282.238 106.833 282.551 106.554 282.736L63.0077 311.767C60.4916 313.445 59 316.279 59 319.273C59 324.238 63.0396 328.344 68.0709 328.305L86.0839 328.163C90.9933 328.124 94.9529 324.133 94.9529 319.224C94.9529 318.909 95.1099 318.616 95.3712 318.442L138.945 289.392C141.449 287.723 142.953 284.913 142.953 281.904V248.671V244.671H138.953H111Z" fill="white" stroke="#FFBC5E" stroke-width="8"/>
<path d="M208.802 276.811C208.912 272.473 212.46 269.013 216.8 269.013H299.424C301.985 269.013 304.391 270.239 305.896 272.311L317.472 288.244C318.465 289.61 319 291.256 319 292.946V325.013C319 329.431 315.418 333.013 311 333.013H215.583C211.086 333.013 207.472 329.307 207.586 324.811L208.802 276.811Z" fill="#FFBC5E" stroke="#FFBC5E" stroke-width="8"/>
<path d="M6.33809 314.85L4.30202 325.929C3.62453 329.615 6.45513 333.013 10.2032 333.013H214.021C216.908 333.013 219.386 330.957 219.918 328.119L222.333 315.241C222.757 312.978 224.136 311.007 226.117 309.833L269.886 283.896C276.886 279.747 273.945 269.013 265.808 269.013H93.6696C84.0641 269.013 74.6324 271.575 66.3472 276.435L10.1586 309.396C8.15291 310.572 6.75839 312.563 6.33809 314.85Z" fill="white" stroke="#FFBC5E" stroke-width="8"/>
<line x1="11.3401" y1="313.013" x2="188.376" y2="313.013" stroke="#FFBC5E" stroke-width="8" stroke-linecap="round"/>
<path d="M302.595 287.356L259.086 315.84C256.566 317.49 255.047 320.299 255.047 323.312C255.047 328.244 259.046 332.242 263.978 332.242L282.07 332.242C287.002 332.242 291 328.244 291 323.312C291 322.998 291.158 322.705 291.421 322.533L334.93 294.049C337.47 292.386 339 289.555 339 286.519V255.087C339 251.773 336.314 249.087 333 249.087H309.047C305.733 249.087 303.047 251.773 303.047 255.087V286.519C303.047 286.857 302.877 287.171 302.595 287.356Z" fill="white" stroke="#FFBC5E" stroke-width="8"/>
<path d="M196.376 100.376H87C80.3726 100.376 75 105.748 75 112.376V216.376C75 223.003 80.3726 228.376 87 228.376H196.376C203.003 228.376 208.376 223.003 208.376 216.376V112.376C208.376 105.748 203.003 100.376 196.376 100.376Z" fill="#FFDB6E" stroke="#FFBC5E" stroke-width="8"/>
<path d="M269.02 371.624H391C408.673 371.624 423 357.297 423 339.624V303.099" stroke="#FFBC5E" stroke-width="8" stroke-linecap="round" stroke-linejoin="round"/>
<path d="M323.656 361.764L328.89 383.445C329.896 387.613 326.738 391.624 322.45 391.624H223.719V376.485L307.874 351.624H310.776C316.896 351.624 322.219 355.815 323.656 361.764Z" fill="#FFDB6E" stroke="#FFBC5E" stroke-width="8" stroke-linecap="round" stroke-linejoin="round"/>
<path d="M214.541 379.813V386.656C214.541 389.4 216.765 391.624 219.509 391.624H262.906C265.65 391.624 267.874 389.4 267.874 386.656V379.813C267.874 374.794 270.71 370.207 275.198 367.962L307.874 351.624H257.669C255.612 351.624 253.583 352.103 251.744 353.023L221.865 367.962C217.376 370.207 214.541 374.794 214.541 379.813Z" fill="white" stroke="#FFBC5E" stroke-width="8" stroke-linecap="round" stroke-linejoin="round"/>
<path d="M220.208 374.781H250.858" stroke="#FFBC5E" stroke-width="8" stroke-linecap="round"/>
</svg>
